<?xml version="1.0" encoding="utf-8"?>
<!-- Generator: Adobe Illustrator 19.1.0, SVG Export Plug-In . SVG Version: 6.00 Build 0)  -->
<svg version="1.1" id="Layer_1" xmlns="http://www.w3.org/2000/svg" xmlns:xlink="http://www.w3.org/1999/xlink" x="0px" y="0px"
	 viewBox="-470 271 19 19" style="enable-background:new -470 271 19 19;" xml:space="preserve">
<style type="text/css">
	.st0{fill:#FFFFFF;}
</style>
<path class="st0" d="M-460.5,290c-5.2,0-9.5-4.3-9.5-9.5s4.3-9.5,9.5-9.5s9.5,4.3,9.5,9.5S-455.3,290-460.5,290z"/>
<path d="M-456.2,280.4c0-0.9,0-1.7-1.2-1.7c-1.2,0-1.6,0.9-1.6,2v3h-1v-5.6h0.9v0.9c0.5-0.7,1.1-1,1.9-1c1.4,0,1.9,0.8,1.9,2.1v3.8
	h-0.9C-456.2,283.9-456.2,280.4-456.2,280.4z"/>
<path d="M-465.3,281.2c0,1.2,0.7,1.9,1.8,1.9c0.8,0,1.3-0.4,1.5-1.2h1c-0.3,1.3-1.1,2-2.5,2c-1.7,0-2.7-1.1-2.7-2.9s1.1-3.1,2.6-3.1
	c1.9,0,2.6,1.5,2.6,3.2v0.1H-465.3L-465.3,281.2z"/>
<path class="st0" d="M-463.6,278.7c-0.9,0-1.6,0.7-1.7,1.7h3.3C-462,279.3-462.6,278.7-463.6,278.7z"/>
</svg>
