<?xml version="1.0" encoding="utf-8"?>
<!-- Generator: Adobe Illustrator 19.1.0, SVG Export Plug-In . SVG Version: 6.00 Build 0)  -->
<svg version="1.1" id="Layer_1" xmlns="http://www.w3.org/2000/svg" xmlns:xlink="http://www.w3.org/1999/xlink" x="0px" y="0px"
	 viewBox="-470 271 19 19" style="enable-background:new -470 271 19 19;" xml:space="preserve">
<style type="text/css">
	.st0{fill:#FFFFFF;}
</style>
<path class="st0" d="M-460.5,290c-5.2,0-9.5-4.3-9.5-9.5s4.3-9.5,9.5-9.5s9.5,4.3,9.5,9.5S-455.3,290-460.5,290z"/>
<path d="M-456.2,283c-0.6,0.6-1.2,0.9-2.1,0.9c-1.1,0-1.8-0.6-1.8-1.6s0.7-1.6,2-1.8c1.4-0.2,1.8-0.1,1.8-0.9c0-0.6-0.5-0.9-1.3-0.9
	c-0.9,0-1.3,0.3-1.4,1.2h-0.9c0-1.2,0.9-1.9,2.4-1.9c0.8,0,1.4,0.2,1.8,0.6c0.4,0.4,0.4,1,0.4,1.5c0,0.8,0,1.7,0,2.5
	c0,0.4,0.1,0.6,0.4,0.6c0.1,0,0.1,0,0.2,0v0.7c-0.2,0.1-0.4,0.1-0.6,0.1C-455.9,283.9-456.2,283.6-456.2,283z"/>
<path class="st0" d="M-456.3,280.8c-0.4,0.3-0.8,0.3-1.3,0.3c-0.7,0.1-1.6,0.2-1.6,1.1c0,0.6,0.4,0.9,1.1,0.9c0.9,0,1.7-0.6,1.7-1.3
	v-1H-456.3z"/>
<path d="M-462.1,282.9c-0.5,0.7-1.1,1-2,1c-1.2,0-1.9-0.7-1.9-1.9v-3.9h1v3.7c0,0.8,0.2,1.4,1.2,1.4c1.2,0,1.7-0.9,1.7-2v-3h0.9v5.7
	h-0.9V282.9z"/>
</svg>
